<?xml version="1.0" encoding="UTF-8"?>
<svg xmlns="http://www.w3.org/2000/svg" xmlns:xlink="http://www.w3.org/1999/xlink" viewBox="0 0 512 512" width="512px" height="512px">
<defs>
<linearGradient id="linear0" gradientUnits="userSpaceOnUse" x1="84.083809" y1="9.09181" x2="84.083809" y2="169.05719" gradientTransform="matrix(2.976744,0,0,2.976744,0,0)">
<stop offset="0" style="stop-color:rgb(10.196079%,42.745098%,100%);stop-opacity:1;"/>
<stop offset="1" style="stop-color:rgb(78.431374%,13.333334%,100%);stop-opacity:1;"/>
</linearGradient>
<linearGradient id="linear1" gradientUnits="userSpaceOnUse" x1="83.081367" y1="10.51081" x2="83.081367" y2="168.186447" gradientTransform="matrix(2.976744,0,0,2.976744,0,0)">
<stop offset="0" style="stop-color:rgb(10.196079%,42.745098%,100%);stop-opacity:1;"/>
<stop offset="1" style="stop-color:rgb(78.431374%,13.333334%,100%);stop-opacity:1;"/>
</linearGradient>
<linearGradient id="linear2" gradientUnits="userSpaceOnUse" x1="104.860878" y1="8.63494" x2="104.860878" y2="169.196945" gradientTransform="matrix(2.976744,0,0,2.976744,0,0)">
<stop offset="0" style="stop-color:rgb(10.196079%,42.745098%,100%);stop-opacity:1;"/>
<stop offset="1" style="stop-color:rgb(78.431374%,13.333334%,100%);stop-opacity:1;"/>
</linearGradient>
<linearGradient id="linear3" gradientUnits="userSpaceOnUse" x1="82.167618" y1="9.06494" x2="82.167618" y2="169.116302" gradientTransform="matrix(2.976744,0,0,2.976744,0,0)">
<stop offset="0" style="stop-color:rgb(10.196079%,42.745098%,100%);stop-opacity:1;"/>
<stop offset="1" style="stop-color:rgb(78.431374%,13.333334%,100%);stop-opacity:1;"/>
</linearGradient>
<linearGradient id="linear4" gradientUnits="userSpaceOnUse" x1="79.609131" y1="8.63494" x2="79.609131" y2="169.196945" gradientTransform="matrix(2.976744,0,0,2.976744,0,0)">
<stop offset="0" style="stop-color:rgb(10.196079%,42.745098%,100%);stop-opacity:1;"/>
<stop offset="1" style="stop-color:rgb(78.431374%,13.333334%,100%);stop-opacity:1;"/>
</linearGradient>
<linearGradient id="linear5" gradientUnits="userSpaceOnUse" x1="134.428757" y1="2.68481" x2="134.428757" y2="172.774002" gradientTransform="matrix(2.976744,0,0,2.976744,0,0)">
<stop offset="0" style="stop-color:rgb(10.196079%,42.745098%,100%);stop-opacity:1;"/>
<stop offset="1" style="stop-color:rgb(78.431374%,13.333334%,100%);stop-opacity:1;"/>
</linearGradient>
<linearGradient id="linear6" gradientUnits="userSpaceOnUse" x1="86" y1="8.63494" x2="86" y2="169.196945" gradientTransform="matrix(2.976744,0,0,2.976744,0,0)">
<stop offset="0" style="stop-color:rgb(10.196079%,42.745098%,100%);stop-opacity:1;"/>
<stop offset="1" style="stop-color:rgb(78.431374%,13.333334%,100%);stop-opacity:1;"/>
</linearGradient>
<linearGradient id="linear7" gradientUnits="userSpaceOnUse" x1="97.034866" y1="8.63225" x2="97.034866" y2="169.199615" gradientTransform="matrix(2.976744,0,0,2.976744,0,0)">
<stop offset="0" style="stop-color:rgb(10.196079%,42.745098%,100%);stop-opacity:1;"/>
<stop offset="1" style="stop-color:rgb(78.431374%,13.333334%,100%);stop-opacity:1;"/>
</linearGradient>
</defs>
<g id="surface1343315">
<path style=" stroke:none;fill-rule:nonzero;fill:url(#linear0);" d="M 189.992188 390.945312 C 113.113281 412.296875 236.761719 456.40625 334.640625 414.710938 C 318.609375 408.511719 307.128906 401.359375 307.128906 401.359375 C 263.464844 409.574219 243.207031 410.214844 203.59375 405.726562 C 170.878906 401.992188 189.992188 390.945312 189.992188 390.945312 Z M 189.992188 390.945312 "/>
<path style=" stroke:none;fill-rule:nonzero;fill:url(#linear1);" d="M 322.921875 348.902344 C 265.078125 359.816406 231.65625 359.464844 189.328125 355.183594 C 156.601562 351.863281 178.03125 336.328125 178.03125 336.328125 C 93.335938 363.863281 225.152344 395.097656 343.503906 361.191406 C 330.921875 356.847656 322.921875 348.902344 322.921875 348.902344 Z M 322.921875 348.902344 "/>
<path style=" stroke:none;fill-rule:nonzero;fill:url(#linear2);" d="M 368.289062 107.0625 C 368.289062 107.0625 195.96875 149.710938 278.273438 243.695312 C 302.550781 271.398438 271.894531 296.328125 271.894531 296.328125 C 271.894531 296.328125 333.542969 264.792969 305.230469 225.296875 C 278.785156 188.457031 258.503906 170.160156 368.289062 107.0625 Z M 368.289062 107.0625 "/>
<path style=" stroke:none;fill-rule:nonzero;fill:url(#linear3);" d="M 408.328125 431.328125 C 408.328125 431.328125 422.472656 442.910156 392.753906 451.878906 C 336.246094 468.902344 157.59375 474.039062 107.960938 452.558594 C 90.121094 444.839844 123.574219 434.128906 134.105469 431.878906 C 145.078125 429.511719 151.351562 429.953125 151.351562 429.953125 C 131.511719 416.054688 23.105469 457.246094 96.289062 469.039062 C 295.863281 501.222656 460.097656 454.542969 408.328125 431.328125 Z M 408.328125 431.328125 "/>
<path style=" stroke:none;fill-rule:nonzero;fill:url(#linear4);" d="M 339.71875 310.121094 C 349.3125 303.585938 362.574219 297.921875 362.574219 297.921875 C 362.574219 297.921875 324.808594 304.648438 287.199219 307.816406 C 241.175781 311.664062 191.777344 312.40625 166.992188 309.105469 C 108.296875 301.289062 199.175781 279.753906 199.175781 279.753906 C 199.175781 279.753906 163.886719 277.375 120.480469 298.3125 C 69.160156 323.070312 247.441406 334.335938 339.71875 310.121094 Z M 339.71875 310.121094 "/>
<path style=" stroke:none;fill-rule:nonzero;fill:url(#linear5);" d="M 362.207031 373.398438 C 361.777344 374.632812 360.320312 376 360.320312 376 C 485.953125 341.191406 439.761719 253.3125 379.703125 275.558594 C 374.433594 277.535156 371.664062 282.097656 371.664062 282.097656 C 371.664062 282.097656 374.984375 280.679688 382.425781 279.046875 C 412.785156 272.382812 456.273438 321.886719 362.207031 373.398438 Z M 362.207031 373.398438 "/>
<path style=" stroke:none;fill-rule:nonzero;fill:url(#linear6);" d="M 257.800781 278.832031 C 239.457031 237.167969 177.230469 200.703125 257.832031 136.753906 C 358.34375 57.023438 306.761719 5.175781 306.761719 5.175781 C 327.574219 87.535156 233.382812 112.398438 199.382812 163.695312 C 176.230469 198.640625 210.753906 236.183594 257.800781 278.832031 Z M 257.800781 278.832031 "/>
<path style=" stroke:none;fill-rule:nonzero;fill:url(#linear7);" d="M 365.574219 485.648438 C 288.71875 500.078125 193.929688 498.390625 137.703125 489.144531 C 137.703125 489.144531 149.214844 498.648438 208.398438 502.433594 C 298.449219 508.183594 436.726562 499.238281 440 456.734375 C 440 456.734375 433.703125 472.847656 365.574219 485.648438 Z M 365.574219 485.648438 "/>
</g>
</svg>
