<?xml version="1.0" encoding="UTF-8"?>
<svg xmlns="http://www.w3.org/2000/svg" xmlns:xlink="http://www.w3.org/1999/xlink" viewBox="0 0 500 500" width="500px" height="500px">
<g id="surface128639">
<path style=" stroke:none;fill-rule:nonzero;fill:rgb(100%,100%,100%);fill-opacity:1;" d="M 281.875 -0.0390625 C 309.375 63.59375 183.203125 102.890625 171.523438 155.9375 C 160.742188 204.609375 246.40625 261.210938 246.445312 261.210938 C 233.4375 241.054688 224.023438 224.414062 210.976562 193.046875 C 188.90625 140 345.3125 92.03125 281.875 -0.0390625 Z M 365.507812 88.125 C 365.507812 88.125 255.039062 95.117188 249.414062 165.820312 C 246.914062 197.304688 278.4375 214.101562 279.375 237.03125 C 280.078125 255.703125 260.507812 271.289062 260.507812 271.289062 C 260.507812 271.289062 296.015625 264.609375 307.148438 236.054688 C 319.453125 204.375 283.28125 182.734375 286.914062 157.382812 C 290.429688 133.125 365.507812 88.125 365.507812 88.125 Z M 392.304688 251.445312 C 380.742188 250.9375 367.890625 254.765625 356.25 263.125 C 379.0625 258.242188 398.359375 272.1875 398.359375 288.28125 C 398.359375 324.53125 345.976562 358.789062 345.976562 358.789062 C 345.976562 358.789062 427.070312 349.53125 427.070312 290 C 427.070312 265.390625 411.523438 252.34375 392.304688 251.445312 Z M 191.835938 251.523438 C 191.835938 251.523438 90.625 250.15625 90.625 278.789062 C 90.625 308.710938 223.164062 310.820312 317.8125 292.382812 C 317.8125 292.382812 343.085938 275.078125 349.804688 268.632812 C 287.773438 281.289062 146.210938 282.96875 146.210938 272.03125 C 146.210938 261.914062 191.835938 251.523438 191.835938 251.523438 Z M 167.382812 307.226562 C 151.875 307.226562 128.710938 319.21875 128.710938 330.78125 C 128.710938 354.023438 245.625 371.953125 332.1875 337.96875 L 302.226562 319.609375 C 243.554688 338.398438 135.390625 332.382812 167.382812 307.226562 Z M 181.796875 359.21875 C 160.507812 359.21875 146.71875 372.34375 146.71875 382.03125 C 146.71875 411.875 273.789062 414.882812 324.140625 384.53125 L 292.148438 364.179688 C 254.53125 380.078125 160.078125 382.226562 181.796875 359.21875 Z M 110.898438 386.25 C 76.210938 385.546875 53.671875 401.132812 53.671875 414.0625 C 53.632812 482.8125 408.90625 479.492188 408.90625 409.21875 C 408.90625 397.578125 395.15625 392.03125 390.195312 389.375 C 419.21875 456.5625 99.6875 451.367188 99.6875 411.71875 C 99.6875 402.695312 123.125 393.828125 144.921875 398.085938 L 126.445312 387.578125 C 121.015625 386.757812 115.820312 386.328125 110.898438 386.25 Z M 446.367188 432.5 C 392.34375 483.671875 255.46875 502.34375 117.8125 470.742188 C 255.429688 527.03125 445.664062 495.351562 446.367188 432.5 Z M 446.367188 432.5 "/>
</g>
</svg>
